<svg xmlns="http://www.w3.org/2000/svg" xmlns:xlink="http://www.w3.org/1999/xlink" width="2000" zoomAndPan="magnify" viewBox="0 0 1500 1499.999933" height="2000" preserveAspectRatio="xMidYMid meet" version="1.0"><defs><clipPath id="86cc751bd2"><path d="M 125.835938 125.835938 L 1373.835938 125.835938 L 1373.835938 1373.835938 L 125.835938 1373.835938 Z M 125.835938 125.835938 " clip-rule="nonzero"/></clipPath></defs><rect x="-150" width="1800" fill="#ffffff" y="-149.999993" height="1799.99992" fill-opacity="1"/><rect x="-150" width="1800" fill="#000000" y="-149.999993" height="1799.99992" fill-opacity="1"/><g clip-path="url(#86cc751bd2)"><path fill="#6706e5" d="M 426.207031 1073.714844 C 356.601562 1019.382812 344.21875 918.902344 398.550781 849.304688 L 573.90625 624.640625 C 643.511719 678.972656 655.894531 779.4375 601.566406 849.042969 Z M 1073.789062 426.125 C 1143.398438 480.457031 1155.773438 580.921875 1101.441406 650.527344 L 926.089844 875.199219 C 856.476562 820.867188 844.105469 720.390625 898.4375 650.78125 Z M 1073.398438 1073.738281 C 1019.0625 1143.34375 918.601562 1155.738281 848.992188 1101.402344 L 624.328125 926.035156 C 678.65625 856.4375 779.132812 844.050781 848.730469 898.386719 Z M 650.871094 601.480469 C 720.472656 655.8125 820.949219 643.425781 875.277344 573.832031 L 650.617188 398.464844 C 581.007812 344.128906 480.539062 356.519531 426.207031 426.125 Z M 233.117188 870.0625 C 292.34375 870.0625 340.351562 822.046875 340.351562 762.816406 C 340.351562 703.601562 292.34375 655.589844 233.117188 655.589844 C 173.890625 655.589844 125.882812 703.601562 125.882812 762.816406 C 125.882812 822.046875 173.890625 870.0625 233.117188 870.0625 Z M 1374.109375 762.816406 C 1374.109375 703.601562 1326.109375 655.589844 1266.878906 655.589844 C 1207.648438 655.589844 1159.652344 703.601562 1159.652344 762.816406 C 1159.652344 822.046875 1207.648438 870.0625 1266.878906 870.0625 C 1326.109375 870.0625 1374.109375 822.046875 1374.109375 762.816406 Z M 736.703125 1374.070312 C 795.921875 1374.070312 843.9375 1326.054688 843.9375 1266.824219 C 843.9375 1207.609375 795.921875 1159.597656 736.703125 1159.597656 C 677.476562 1159.597656 629.464844 1207.609375 629.464844 1266.824219 C 629.464844 1326.054688 677.476562 1374.070312 736.703125 1374.070312 Z M 870.144531 233.039062 C 870.144531 292.257812 822.128906 340.269531 762.898438 340.269531 C 703.679688 340.269531 655.664062 292.257812 655.664062 233.039062 C 655.664062 173.808594 703.679688 125.796875 762.898438 125.796875 C 822.128906 125.796875 870.144531 173.808594 870.144531 233.039062 " fill-opacity="1" fill-rule="nonzero"/></g><path fill="#1ad8c9" d="M 426.207031 426.125 C 356.601562 480.457031 344.21875 580.921875 398.550781 650.527344 L 573.90625 875.199219 C 643.511719 820.867188 655.894531 720.390625 601.566406 650.78125 Z M 1073.789062 1073.714844 C 1143.398438 1019.382812 1155.773438 918.902344 1101.441406 849.304688 L 926.089844 624.640625 C 856.476562 678.972656 844.105469 779.4375 898.4375 849.042969 Z M 425.816406 1073.738281 C 480.144531 1143.34375 580.613281 1155.738281 650.21875 1101.402344 L 874.882812 926.035156 C 820.554688 856.4375 720.082031 844.050781 650.476562 898.386719 Z M 849.125 601.480469 C 779.515625 655.8125 679.054688 643.425781 624.722656 573.832031 L 849.386719 398.464844 C 918.992188 344.128906 1019.457031 356.519531 1073.789062 426.125 L 849.125 601.480469 " fill-opacity="1" fill-rule="nonzero"/></svg>