<svg xmlns="http://www.w3.org/2000/svg" xmlns:xlink="http://www.w3.org/1999/xlink" width="2000" zoomAndPan="magnify" viewBox="0 0 1500 1499.999933" height="2000" preserveAspectRatio="xMidYMid meet" version="1.0"><defs><g/><clipPath id="1cd0e10b0d"><path d="M 299.863281 150 L 1199.863281 150 L 1199.863281 1050 L 299.863281 1050 Z M 299.863281 150 " clip-rule="nonzero"/></clipPath></defs><g clip-path="url(#1cd0e10b0d)"><path fill="#6706e5" d="M 516.488281 833.589844 C 466.289062 794.410156 457.359375 721.945312 496.542969 671.753906 L 623.007812 509.730469 C 673.203125 548.910156 682.132812 621.367188 642.953125 671.5625 Z M 983.511719 366.566406 C 1033.714844 405.746094 1042.636719 478.199219 1003.453125 528.398438 L 876.992188 690.425781 C 826.789062 651.246094 817.867188 578.78125 857.050781 528.582031 Z M 983.230469 833.609375 C 944.042969 883.808594 871.59375 892.746094 821.390625 853.558594 L 659.367188 727.089844 C 698.550781 676.898438 771.011719 667.964844 821.203125 707.148438 Z M 678.511719 493.023438 C 728.707031 532.210938 801.167969 523.277344 840.347656 473.085938 L 678.328125 346.613281 C 628.128906 307.429688 555.667969 316.367188 516.488281 366.566406 Z M 377.234375 686.722656 C 419.945312 686.722656 454.570312 652.09375 454.570312 609.378906 C 454.570312 566.675781 419.945312 532.046875 377.234375 532.046875 C 334.523438 532.046875 299.898438 566.675781 299.898438 609.378906 C 299.898438 652.09375 334.523438 686.722656 377.234375 686.722656 Z M 1200.09375 609.378906 C 1200.09375 566.675781 1165.480469 532.046875 1122.765625 532.046875 C 1080.046875 532.046875 1045.433594 566.675781 1045.433594 609.378906 C 1045.433594 652.09375 1080.046875 686.722656 1122.765625 686.722656 C 1165.480469 686.722656 1200.09375 652.09375 1200.09375 609.378906 Z M 740.410156 1050.203125 C 783.121094 1050.203125 817.746094 1015.574219 817.746094 972.859375 C 817.746094 930.15625 783.121094 895.527344 740.410156 895.527344 C 697.699219 895.527344 663.074219 930.15625 663.074219 972.859375 C 663.074219 1015.574219 697.699219 1050.203125 740.410156 1050.203125 Z M 836.644531 227.316406 C 836.644531 270.019531 802.019531 304.644531 759.300781 304.644531 C 716.59375 304.644531 681.96875 270.019531 681.96875 227.316406 C 681.96875 184.597656 716.59375 149.972656 759.300781 149.972656 C 802.019531 149.972656 836.644531 184.597656 836.644531 227.316406 " fill-opacity="1" fill-rule="nonzero"/></g><path fill="#1ad8c9" d="M 516.488281 366.566406 C 466.289062 405.746094 457.359375 478.199219 496.542969 528.398438 L 623.007812 690.425781 C 673.203125 651.246094 682.132812 578.78125 642.953125 528.582031 Z M 983.511719 833.589844 C 1033.714844 794.410156 1042.636719 721.945312 1003.453125 671.753906 L 876.992188 509.730469 C 826.789062 548.910156 817.867188 621.367188 857.050781 671.5625 Z M 516.207031 833.609375 C 555.386719 883.808594 627.84375 892.746094 678.042969 853.558594 L 840.066406 727.089844 C 800.882812 676.898438 728.425781 667.964844 678.226562 707.148438 Z M 821.488281 493.023438 C 771.285156 532.210938 698.835938 523.277344 659.652344 473.085938 L 821.675781 346.613281 C 871.875 307.429688 944.328125 316.367188 983.511719 366.566406 L 821.488281 493.023438 " fill-opacity="1" fill-rule="nonzero"/><g fill="#6706e5" fill-opacity="1"><g transform="translate(146.294641, 1224.326707)"><g><path d="M 65.421875 -69.828125 L 65.421875 -57.21875 L 42.421875 -57.21875 L 42.421875 0 L 26.453125 0 L 26.453125 -57.21875 L 3.46875 -57.21875 L 3.46875 -69.828125 Z M 65.421875 -69.828125 "/></g></g></g><g fill="#6706e5" fill-opacity="1"><g transform="translate(215.17469, 1224.326707)"><g><path d="M 40.53125 -54.1875 C 47.382812 -54.1875 52.351562 -52.242188 55.4375 -48.359375 C 58.519531 -44.472656 60.0625 -39.097656 60.0625 -32.234375 L 60.0625 0 L 44.515625 0 L 44.515625 -29.8125 C 44.515625 -34.019531 43.65625 -37.03125 41.9375 -38.84375 C 40.226562 -40.664062 37.765625 -41.578125 34.546875 -41.578125 C 30.410156 -41.578125 27.222656 -40.175781 24.984375 -37.375 C 22.742188 -34.582031 21.625 -30.066406 21.625 -23.828125 L 21.625 0 L 6.09375 0 L 6.09375 -73.5 L 21.625 -73.5 L 21.625 -42.203125 C 23.3125 -45.773438 25.691406 -48.664062 28.765625 -50.875 C 31.847656 -53.082031 35.769531 -54.1875 40.53125 -54.1875 Z M 40.53125 -54.1875 "/></g></g></g><g fill="#6706e5" fill-opacity="1"><g transform="translate(280.589731, 1224.326707)"><g><path d="M 32.4375 -9.03125 C 35.875 -9.03125 38.535156 -9.675781 40.421875 -10.96875 C 42.316406 -12.269531 43.613281 -13.898438 44.3125 -15.859375 L 59.21875 -15.859375 C 58.726562 -13.054688 57.554688 -10.304688 55.703125 -7.609375 C 53.847656 -4.910156 51.03125 -2.6875 47.25 -0.9375 C 43.46875 0.8125 38.425781 1.6875 32.125 1.6875 C 25.332031 1.6875 19.851562 0.375 15.6875 -2.25 C 11.53125 -4.875 8.523438 -8.320312 6.671875 -12.59375 C 4.816406 -16.863281 3.890625 -21.453125 3.890625 -26.359375 C 3.890625 -31.460938 4.882812 -36.113281 6.875 -40.3125 C 8.875 -44.519531 11.972656 -47.882812 16.171875 -50.40625 C 20.367188 -52.925781 25.6875 -54.1875 32.125 -54.1875 C 38.78125 -54.1875 44.082031 -52.90625 48.03125 -50.34375 C 51.988281 -47.789062 54.859375 -44.414062 56.640625 -40.21875 C 58.429688 -36.019531 59.328125 -31.429688 59.328125 -26.453125 C 59.328125 -25.691406 59.328125 -24.941406 59.328125 -24.203125 C 59.328125 -23.460938 59.253906 -22.816406 59.109375 -22.265625 L 19.109375 -22.265625 C 19.597656 -17.296875 21.015625 -13.847656 23.359375 -11.921875 C 25.703125 -9.992188 28.726562 -9.03125 32.4375 -9.03125 Z M 32.34375 -43.6875 C 28.632812 -43.6875 25.675781 -42.8125 23.46875 -41.0625 C 21.257812 -39.3125 19.84375 -36.191406 19.21875 -31.703125 L 44.515625 -31.703125 C 44.023438 -39.691406 39.96875 -43.6875 32.34375 -43.6875 Z M 32.34375 -43.6875 "/></g></g></g><g fill="#6706e5" fill-opacity="1"><g transform="translate(343.58976, 1224.326707)"><g/></g></g><g fill="#6706e5" fill-opacity="1"><g transform="translate(370.15479, 1224.326707)"><g><path d="M 41.265625 1.78125 C 34.679688 1.78125 29.078125 0.800781 24.453125 -1.15625 C 19.835938 -3.113281 16.078125 -5.789062 13.171875 -9.1875 C 10.265625 -12.582031 8.128906 -16.484375 6.765625 -20.890625 C 5.398438 -25.304688 4.71875 -29.960938 4.71875 -34.859375 C 4.71875 -39.691406 5.398438 -44.3125 6.765625 -48.71875 C 8.128906 -53.125 10.265625 -57.039062 13.171875 -60.46875 C 16.078125 -63.90625 19.859375 -66.617188 24.515625 -68.609375 C 29.171875 -70.609375 34.789062 -71.609375 41.375 -71.609375 C 49.414062 -71.609375 55.9375 -70.503906 60.9375 -68.296875 C 65.945312 -66.097656 69.710938 -62.828125 72.234375 -58.484375 C 74.753906 -54.140625 76.257812 -48.785156 76.75 -42.421875 L 60.375 -42.421875 C 59.882812 -47.597656 58.238281 -51.585938 55.4375 -54.390625 C 52.632812 -57.191406 48.015625 -58.59375 41.578125 -58.59375 C 34.578125 -58.59375 29.46875 -56.597656 26.25 -52.609375 C 23.03125 -48.617188 21.421875 -42.703125 21.421875 -34.859375 C 21.421875 -27.160156 22.941406 -21.316406 25.984375 -17.328125 C 29.035156 -13.335938 34.0625 -11.34375 41.0625 -11.34375 C 47.78125 -11.34375 52.609375 -12.796875 55.546875 -15.703125 C 58.484375 -18.609375 60.160156 -22.789062 60.578125 -28.25 L 77.0625 -28.25 C 76.570312 -21.53125 75.082031 -15.945312 72.59375 -11.5 C 70.113281 -7.050781 66.335938 -3.722656 61.265625 -1.515625 C 56.191406 0.679688 49.523438 1.78125 41.265625 1.78125 Z M 41.265625 1.78125 "/></g></g></g><g fill="#6706e5" fill-opacity="1"><g transform="translate(451.424841, 1224.326707)"><g><path d="M 22.046875 1.359375 C 16.722656 1.359375 12.488281 -0.0195312 9.34375 -2.78125 C 6.195312 -5.550781 4.625 -9.28125 4.625 -13.96875 C 4.625 -16.769531 5.113281 -19.234375 6.09375 -21.359375 C 7.070312 -23.492188 8.820312 -25.296875 11.34375 -26.765625 C 13.863281 -28.242188 17.363281 -29.367188 21.84375 -30.140625 L 34.234375 -32.234375 C 36.679688 -32.648438 38.375 -33.242188 39.3125 -34.015625 C 40.257812 -34.785156 40.734375 -35.941406 40.734375 -37.484375 C 40.734375 -39.304688 40.085938 -40.773438 38.796875 -41.890625 C 37.503906 -43.015625 35.109375 -43.578125 31.609375 -43.578125 C 24.671875 -43.578125 21.097656 -40.847656 20.890625 -35.390625 L 5.671875 -35.390625 C 5.878906 -40.984375 8.203125 -45.53125 12.640625 -49.03125 C 17.085938 -52.53125 23.304688 -54.28125 31.296875 -54.28125 C 39.273438 -54.28125 45.222656 -52.6875 49.140625 -49.5 C 53.054688 -46.320312 55.015625 -41.929688 55.015625 -36.328125 L 55.015625 -13.65625 C 55.015625 -11.195312 55.082031 -8.863281 55.21875 -6.65625 C 55.363281 -4.457031 55.578125 -2.238281 55.859375 0 L 42.3125 0 C 42.03125 -1.75 41.816406 -3.515625 41.671875 -5.296875 C 41.535156 -7.085938 41.46875 -9.066406 41.46875 -11.234375 C 40.28125 -7.597656 38.09375 -4.585938 34.90625 -2.203125 C 31.726562 0.171875 27.441406 1.359375 22.046875 1.359375 Z M 27.296875 -9.234375 C 31.429688 -9.234375 34.703125 -10.632812 37.109375 -13.4375 C 39.523438 -16.238281 40.734375 -20.085938 40.734375 -24.984375 L 40.734375 -27.296875 C 39.410156 -26.390625 38.046875 -25.691406 36.640625 -25.203125 C 35.242188 -24.710938 33.738281 -24.289062 32.125 -23.9375 L 27.71875 -22.890625 C 24.914062 -22.191406 22.921875 -21.296875 21.734375 -20.203125 C 20.546875 -19.117188 19.953125 -17.566406 19.953125 -15.546875 C 19.953125 -13.441406 20.648438 -11.863281 22.046875 -10.8125 C 23.453125 -9.757812 25.203125 -9.234375 27.296875 -9.234375 Z M 27.296875 -9.234375 "/></g></g></g><g fill="#6706e5" fill-opacity="1"><g transform="translate(512.21988, 1224.326707)"><g><path d="M 75.703125 -54.1875 C 82.359375 -54.1875 87.242188 -52.242188 90.359375 -48.359375 C 93.472656 -44.472656 95.03125 -39.097656 95.03125 -32.234375 L 95.03125 0 L 79.484375 0 L 79.484375 -30.03125 C 79.484375 -37.726562 76.332031 -41.578125 70.03125 -41.578125 C 66.113281 -41.578125 63.15625 -40.175781 61.15625 -37.375 C 59.164062 -34.582031 58.171875 -30.066406 58.171875 -23.828125 L 58.171875 0 L 42.9375 0 L 42.9375 -30.03125 C 42.9375 -37.726562 39.789062 -41.578125 33.5 -41.578125 C 29.570312 -41.578125 26.609375 -40.175781 24.609375 -37.375 C 22.617188 -34.582031 21.625 -30.066406 21.625 -23.828125 L 21.625 0 L 6.09375 0 L 6.09375 -52.5 L 21.625 -52.5 L 21.625 -42.9375 C 23.238281 -46.300781 25.5 -49.015625 28.40625 -51.078125 C 31.3125 -53.148438 35.035156 -54.1875 39.578125 -54.1875 C 44.273438 -54.1875 48.054688 -53.132812 50.921875 -51.03125 C 53.796875 -48.925781 55.789062 -45.914062 56.90625 -42 C 58.519531 -45.632812 60.832031 -48.570312 63.84375 -50.8125 C 66.851562 -53.0625 70.804688 -54.1875 75.703125 -54.1875 Z M 75.703125 -54.1875 "/></g></g></g><g fill="#6706e5" fill-opacity="1"><g transform="translate(612.59996, 1224.326707)"><g><path d="M 40.109375 -54.1875 C 45.847656 -54.1875 50.503906 -52.90625 54.078125 -50.34375 C 57.648438 -47.789062 60.253906 -44.394531 61.890625 -40.15625 C 63.535156 -35.925781 64.359375 -31.289062 64.359375 -26.25 C 64.359375 -21.28125 63.535156 -16.675781 61.890625 -12.4375 C 60.253906 -8.207031 57.648438 -4.796875 54.078125 -2.203125 C 50.503906 0.390625 45.847656 1.6875 40.109375 1.6875 C 35.628906 1.6875 31.847656 0.863281 28.765625 -0.78125 C 25.691406 -2.425781 23.242188 -4.722656 21.421875 -7.671875 L 21.421875 21 L 5.875 21 L 5.875 -52.5 L 21.421875 -52.5 L 21.421875 -44.9375 C 23.242188 -47.8125 25.691406 -50.070312 28.765625 -51.71875 C 31.847656 -53.363281 35.628906 -54.1875 40.109375 -54.1875 Z M 35.390625 -10.5 C 40.359375 -10.5 43.820312 -11.773438 45.78125 -14.328125 C 47.738281 -16.890625 48.71875 -20.863281 48.71875 -26.25 C 48.71875 -31.707031 47.738281 -35.695312 45.78125 -38.21875 C 43.820312 -40.738281 40.359375 -42 35.390625 -42 C 30.484375 -42 26.925781 -40.71875 24.71875 -38.15625 C 22.519531 -35.601562 21.421875 -31.632812 21.421875 -26.25 C 21.421875 -20.925781 22.519531 -16.96875 24.71875 -14.375 C 26.925781 -11.789062 30.484375 -10.5 35.390625 -10.5 Z M 35.390625 -10.5 "/></g></g></g><g fill="#6706e5" fill-opacity="1"><g transform="translate(680.744989, 1224.326707)"><g><path d="M 43.78125 -52.5 L 59.328125 -52.5 L 59.328125 0 L 43.78125 0 L 43.78125 -10.078125 C 42.175781 -6.578125 39.867188 -3.738281 36.859375 -1.5625 C 33.847656 0.601562 29.960938 1.6875 25.203125 1.6875 C 18.335938 1.6875 13.3125 -0.269531 10.125 -4.1875 C 6.945312 -8.113281 5.359375 -13.507812 5.359375 -20.375 L 5.359375 -52.5 L 20.890625 -52.5 L 20.890625 -22.6875 C 20.890625 -18.550781 21.78125 -15.570312 23.5625 -13.75 C 25.351562 -11.9375 27.894531 -11.03125 31.1875 -11.03125 C 35.101562 -11.03125 38.179688 -12.476562 40.421875 -15.375 C 42.660156 -18.28125 43.78125 -22.710938 43.78125 -28.671875 Z M 43.78125 -52.5 "/></g></g></g><g fill="#6706e5" fill-opacity="1"><g transform="translate(746.160007, 1224.326707)"><g><path d="M 2.734375 -17.109375 L 16.90625 -17.109375 C 17.113281 -14.585938 18.195312 -12.453125 20.15625 -10.703125 C 22.113281 -8.953125 25.054688 -8.078125 28.984375 -8.078125 C 32.484375 -8.078125 34.929688 -8.632812 36.328125 -9.75 C 37.734375 -10.875 38.4375 -12.347656 38.4375 -14.171875 C 38.4375 -15.785156 37.941406 -17.132812 36.953125 -18.21875 C 35.972656 -19.300781 34.015625 -20.019531 31.078125 -20.375 L 19.3125 -21.84375 C 14.414062 -22.46875 10.65625 -24.078125 8.03125 -26.671875 C 5.40625 -29.265625 4.09375 -32.765625 4.09375 -37.171875 C 4.09375 -41.085938 5.109375 -44.304688 7.140625 -46.828125 C 9.171875 -49.347656 11.988281 -51.21875 15.59375 -52.4375 C 19.195312 -53.664062 23.3125 -54.28125 27.9375 -54.28125 C 35 -54.28125 40.753906 -52.878906 45.203125 -50.078125 C 49.648438 -47.285156 52.117188 -42.984375 52.609375 -37.171875 L 38.21875 -37.171875 C 37.9375 -39.335938 36.972656 -41.101562 35.328125 -42.46875 C 33.679688 -43.832031 31.21875 -44.515625 27.9375 -44.515625 C 24.570312 -44.515625 22.15625 -43.953125 20.6875 -42.828125 C 19.21875 -41.710938 18.484375 -40.316406 18.484375 -38.640625 C 18.484375 -37.304688 18.9375 -36.164062 19.84375 -35.21875 C 20.75 -34.28125 22.5 -33.632812 25.09375 -33.28125 L 36.125 -32.03125 C 42.351562 -31.257812 46.78125 -29.523438 49.40625 -26.828125 C 52.03125 -24.128906 53.34375 -20.4375 53.34375 -15.75 C 53.34375 -12.320312 52.550781 -9.296875 50.96875 -6.671875 C 49.394531 -4.046875 46.804688 -1.992188 43.203125 -0.515625 C 39.597656 0.953125 34.785156 1.6875 28.765625 1.6875 C 22.535156 1.6875 17.53125 0.8125 13.75 -0.9375 C 9.96875 -2.6875 7.21875 -5 5.5 -7.875 C 3.789062 -10.75 2.867188 -13.828125 2.734375 -17.109375 Z M 2.734375 -17.109375 "/></g></g></g><g fill="#6706e5" fill-opacity="1"><g transform="translate(802.650053, 1224.326707)"><g/></g></g><g fill="#6706e5" fill-opacity="1"><g transform="translate(829.215084, 1224.326707)"><g><path d="M 41.265625 1.78125 C 34.679688 1.78125 29.078125 0.800781 24.453125 -1.15625 C 19.835938 -3.113281 16.078125 -5.789062 13.171875 -9.1875 C 10.265625 -12.582031 8.128906 -16.484375 6.765625 -20.890625 C 5.398438 -25.304688 4.71875 -29.960938 4.71875 -34.859375 C 4.71875 -39.691406 5.398438 -44.3125 6.765625 -48.71875 C 8.128906 -53.125 10.265625 -57.039062 13.171875 -60.46875 C 16.078125 -63.90625 19.859375 -66.617188 24.515625 -68.609375 C 29.171875 -70.609375 34.789062 -71.609375 41.375 -71.609375 C 49.414062 -71.609375 55.9375 -70.503906 60.9375 -68.296875 C 65.945312 -66.097656 69.710938 -62.828125 72.234375 -58.484375 C 74.753906 -54.140625 76.257812 -48.785156 76.75 -42.421875 L 60.375 -42.421875 C 59.882812 -47.597656 58.238281 -51.585938 55.4375 -54.390625 C 52.632812 -57.191406 48.015625 -58.59375 41.578125 -58.59375 C 34.578125 -58.59375 29.46875 -56.597656 26.25 -52.609375 C 23.03125 -48.617188 21.421875 -42.703125 21.421875 -34.859375 C 21.421875 -27.160156 22.941406 -21.316406 25.984375 -17.328125 C 29.035156 -13.335938 34.0625 -11.34375 41.0625 -11.34375 C 47.78125 -11.34375 52.609375 -12.796875 55.546875 -15.703125 C 58.484375 -18.609375 60.160156 -22.789062 60.578125 -28.25 L 77.0625 -28.25 C 76.570312 -21.53125 75.082031 -15.945312 72.59375 -11.5 C 70.113281 -7.050781 66.335938 -3.722656 61.265625 -1.515625 C 56.191406 0.679688 49.523438 1.78125 41.265625 1.78125 Z M 41.265625 1.78125 "/></g></g></g><g fill="#6706e5" fill-opacity="1"><g transform="translate(910.485157, 1224.326707)"><g><path d="M 32.96875 1.6875 C 26.039062 1.6875 20.441406 0.375 16.171875 -2.25 C 11.898438 -4.875 8.785156 -8.320312 6.828125 -12.59375 C 4.867188 -16.863281 3.890625 -21.453125 3.890625 -26.359375 C 3.890625 -31.179688 4.867188 -35.710938 6.828125 -39.953125 C 8.785156 -44.191406 11.898438 -47.625 16.171875 -50.25 C 20.441406 -52.875 26.039062 -54.1875 32.96875 -54.1875 C 39.96875 -54.1875 45.601562 -52.875 49.875 -50.25 C 54.144531 -47.625 57.242188 -44.191406 59.171875 -39.953125 C 61.097656 -35.710938 62.0625 -31.179688 62.0625 -26.359375 C 62.0625 -21.523438 61.097656 -16.972656 59.171875 -12.703125 C 57.242188 -8.429688 54.144531 -4.960938 49.875 -2.296875 C 45.601562 0.359375 39.96875 1.6875 32.96875 1.6875 Z M 19.53125 -26.25 C 19.53125 -20.4375 20.597656 -16.359375 22.734375 -14.015625 C 24.867188 -11.671875 28.28125 -10.5 32.96875 -10.5 C 37.726562 -10.5 41.175781 -11.671875 43.3125 -14.015625 C 45.445312 -16.359375 46.515625 -20.4375 46.515625 -26.25 C 46.515625 -32.0625 45.445312 -36.140625 43.3125 -38.484375 C 41.175781 -40.828125 37.726562 -42 32.96875 -42 C 28.28125 -42 24.867188 -40.828125 22.734375 -38.484375 C 20.597656 -36.140625 19.53125 -32.0625 19.53125 -26.25 Z M 19.53125 -26.25 "/></g></g></g><g fill="#6706e5" fill-opacity="1"><g transform="translate(976.425184, 1224.326707)"><g><path d="M 6.09375 0 L 6.09375 -73.5 L 21.625 -73.5 L 21.625 0 Z M 6.09375 0 "/></g></g></g><g fill="#6706e5" fill-opacity="1"><g transform="translate(1004.040233, 1224.326707)"><g><path d="M 6.09375 0 L 6.09375 -73.5 L 21.625 -73.5 L 21.625 0 Z M 6.09375 0 "/></g></g></g><g fill="#6706e5" fill-opacity="1"><g transform="translate(1031.65519, 1224.326707)"><g><path d="M 32.4375 -9.03125 C 35.875 -9.03125 38.535156 -9.675781 40.421875 -10.96875 C 42.316406 -12.269531 43.613281 -13.898438 44.3125 -15.859375 L 59.21875 -15.859375 C 58.726562 -13.054688 57.554688 -10.304688 55.703125 -7.609375 C 53.847656 -4.910156 51.03125 -2.6875 47.25 -0.9375 C 43.46875 0.8125 38.425781 1.6875 32.125 1.6875 C 25.332031 1.6875 19.851562 0.375 15.6875 -2.25 C 11.53125 -4.875 8.523438 -8.320312 6.671875 -12.59375 C 4.816406 -16.863281 3.890625 -21.453125 3.890625 -26.359375 C 3.890625 -31.460938 4.882812 -36.113281 6.875 -40.3125 C 8.875 -44.519531 11.972656 -47.882812 16.171875 -50.40625 C 20.367188 -52.925781 25.6875 -54.1875 32.125 -54.1875 C 38.78125 -54.1875 44.082031 -52.90625 48.03125 -50.34375 C 51.988281 -47.789062 54.859375 -44.414062 56.640625 -40.21875 C 58.429688 -36.019531 59.328125 -31.429688 59.328125 -26.453125 C 59.328125 -25.691406 59.328125 -24.941406 59.328125 -24.203125 C 59.328125 -23.460938 59.253906 -22.816406 59.109375 -22.265625 L 19.109375 -22.265625 C 19.597656 -17.296875 21.015625 -13.847656 23.359375 -11.921875 C 25.703125 -9.992188 28.726562 -9.03125 32.4375 -9.03125 Z M 32.34375 -43.6875 C 28.632812 -43.6875 25.675781 -42.8125 23.46875 -41.0625 C 21.257812 -39.3125 19.84375 -36.191406 19.21875 -31.703125 L 44.515625 -31.703125 C 44.023438 -39.691406 39.96875 -43.6875 32.34375 -43.6875 Z M 32.34375 -43.6875 "/></g></g></g><g fill="#6706e5" fill-opacity="1"><g transform="translate(1094.655276, 1224.326707)"><g><path d="M 3.890625 -26.25 C 3.890625 -31.144531 4.867188 -35.710938 6.828125 -39.953125 C 8.785156 -44.191406 11.878906 -47.625 16.109375 -50.25 C 20.347656 -52.875 25.863281 -54.1875 32.65625 -54.1875 C 38.75 -54.1875 43.789062 -53.171875 47.78125 -51.140625 C 51.769531 -49.109375 54.796875 -46.359375 56.859375 -42.890625 C 58.921875 -39.421875 60.023438 -35.519531 60.171875 -31.1875 L 45.046875 -31.1875 C 44.765625 -34.476562 43.675781 -37.101562 41.78125 -39.0625 C 39.894531 -41.019531 36.957031 -42 32.96875 -42 C 28.769531 -42 25.476562 -40.84375 23.09375 -38.53125 C 20.71875 -36.21875 19.53125 -32.125 19.53125 -26.25 C 19.53125 -20.300781 20.679688 -16.1875 22.984375 -13.90625 C 25.296875 -11.632812 28.554688 -10.5 32.765625 -10.5 C 36.890625 -10.5 39.945312 -11.566406 41.9375 -13.703125 C 43.9375 -15.835938 45.078125 -18.476562 45.359375 -21.625 L 60.484375 -21.625 C 60.410156 -17.570312 59.359375 -13.757812 57.328125 -10.1875 C 55.296875 -6.613281 52.265625 -3.738281 48.234375 -1.5625 C 44.210938 0.601562 39.125 1.6875 32.96875 1.6875 C 26.175781 1.6875 20.628906 0.375 16.328125 -2.25 C 12.023438 -4.875 8.875 -8.304688 6.875 -12.546875 C 4.882812 -16.785156 3.890625 -21.351562 3.890625 -26.25 Z M 3.890625 -26.25 "/></g></g></g><g fill="#6706e5" fill-opacity="1"><g transform="translate(1158.600278, 1224.326707)"><g><path d="M 30.03125 0 C 25.0625 0 21.175781 -0.695312 18.375 -2.09375 C 15.570312 -3.5 13.59375 -5.617188 12.4375 -8.453125 C 11.28125 -11.285156 10.703125 -14.769531 10.703125 -18.90625 L 10.703125 -40.734375 L 1.15625 -40.734375 L 1.15625 -48.1875 L 11.96875 -52.609375 L 18.375 -65 L 26.25 -65 L 26.25 -52.5 L 41.375 -52.5 L 41.375 -40.734375 L 26.25 -40.734375 L 26.25 -12.390625 L 39.90625 -12.390625 L 39.90625 0 Z M 30.03125 0 "/></g></g></g><g fill="#6706e5" fill-opacity="1"><g transform="translate(1202.700311, 1224.326707)"><g><path d="M 5.359375 -59.4375 L 5.359375 -69.828125 L 22.265625 -69.828125 L 22.265625 -59.4375 Z M 6.09375 0 L 6.09375 -52.5 L 21.625 -52.5 L 21.625 0 Z M 6.09375 0 "/></g></g></g><g fill="#6706e5" fill-opacity="1"><g transform="translate(1230.31536, 1224.326707)"><g><path d="M 44.625 -52.5 L 59.4375 -52.5 L 41.15625 0 L 19.3125 0 L 1.046875 -52.5 L 16.90625 -52.5 L 30.765625 -12.078125 Z M 44.625 -52.5 "/></g></g><g transform="translate(1290.690355, 1224.326707)"><g><path d="M 32.4375 -9.03125 C 35.875 -9.03125 38.535156 -9.675781 40.421875 -10.96875 C 42.316406 -12.269531 43.613281 -13.898438 44.3125 -15.859375 L 59.21875 -15.859375 C 58.726562 -13.054688 57.554688 -10.304688 55.703125 -7.609375 C 53.847656 -4.910156 51.03125 -2.6875 47.25 -0.9375 C 43.46875 0.8125 38.425781 1.6875 32.125 1.6875 C 25.332031 1.6875 19.851562 0.375 15.6875 -2.25 C 11.53125 -4.875 8.523438 -8.320312 6.671875 -12.59375 C 4.816406 -16.863281 3.890625 -21.453125 3.890625 -26.359375 C 3.890625 -31.460938 4.882812 -36.113281 6.875 -40.3125 C 8.875 -44.519531 11.972656 -47.882812 16.171875 -50.40625 C 20.367188 -52.925781 25.6875 -54.1875 32.125 -54.1875 C 38.78125 -54.1875 44.082031 -52.90625 48.03125 -50.34375 C 51.988281 -47.789062 54.859375 -44.414062 56.640625 -40.21875 C 58.429688 -36.019531 59.328125 -31.429688 59.328125 -26.453125 C 59.328125 -25.691406 59.328125 -24.941406 59.328125 -24.203125 C 59.328125 -23.460938 59.253906 -22.816406 59.109375 -22.265625 L 19.109375 -22.265625 C 19.597656 -17.296875 21.015625 -13.847656 23.359375 -11.921875 C 25.703125 -9.992188 28.726562 -9.03125 32.4375 -9.03125 Z M 32.34375 -43.6875 C 28.632812 -43.6875 25.675781 -42.8125 23.46875 -41.0625 C 21.257812 -39.3125 19.84375 -36.191406 19.21875 -31.703125 L 44.515625 -31.703125 C 44.023438 -39.691406 39.96875 -43.6875 32.34375 -43.6875 Z M 32.34375 -43.6875 "/></g></g></g></svg>